PathFileType	4	(X/Y/Z)	C:\Users\Basilio\Documents\Thesis Gigler\squatting_fais\c3dfiles\040\SJ_pre1\markers_experimental.trc
DataRate	CameraRate	NumFrames	NumMarkers	Units	OrigDataRate	OrigDataStartFrame	OrigNumFrames
200.000000	200.000000	4	62	mm	200.000000	293	1174
Frame#	Time	FHD			LBHD			RBHD			C7			T10			CLAV			LSHO			LUUPA			LMUPA			LDUPA			LLEP			LMEP			LRAD			LUL			LRFIN			RSHO			RUPA1			RMUPA			RDUPA			RLEP			RMEP			RRAD			RUL			RUFIN			LASI			RASI			USACR			LSACR			RSACR			LTHI1			LTHI2			LTHI3			LTHI4			LLFC			LMFC			LTIB1			LTIB2			LTIB3			LTIB4			LLMAL			LMMAL			LHEE			LMT1			LMT2			LMT5			RTHI			RTHI2			RTHI3			RTHI4			RLFC			RMFC			RTIB1			RTIB2			RTIB3			RTIB4			RLMAL			RMMAL			RHEE			RMT1			RMT2			RMT5			*61			
		X1	Y1	Z1	X2	Y2	Z2	X3	Y3	Z3	X4	Y4	Z4	X5	Y5	Z5	X6	Y6	Z6	X7	Y7	Z7	X8	Y8	Z8	X9	Y9	Z9	X10	Y10	Z10	X11	Y11	Z11	X12	Y12	Z12	X13	Y13	Z13	X14	Y14	Z14	X15	Y15	Z15	X16	Y16	Z16	X17	Y17	Z17	X18	Y18	Z18	X19	Y19	Z19	X20	Y20	Z20	X21	Y21	Z21	X22	Y22	Z22	X23	Y23	Z23	X24	Y24	Z24	X25	Y25	Z25	X26	Y26	Z26	X27	Y27	Z27	X28	Y28	Z28	X29	Y29	Z29	X30	Y30	Z30	X31	Y31	Z31	X32	Y32	Z32	X33	Y33	Z33	X34	Y34	Z34	X35	Y35	Z35	X36	Y36	Z36	X37	Y37	Z37	X38	Y38	Z38	X39	Y39	Z39	X40	Y40	Z40	X41	Y41	Z41	X42	Y42	Z42	X43	Y43	Z43	X44	Y44	Z44	X45	Y45	Z45	X46	Y46	Z46	X47	Y47	Z47	X48	Y48	Z48	X49	Y49	Z49	X50	Y50	Z50	X51	Y51	Z51	X52	Y52	Z52	X53	Y53	Z53	X54	Y54	Z54	X55	Y55	Z55	X56	Y56	Z56	X57	Y57	Z57	X58	Y58	Z58	X59	Y59	Z59	X60	Y60	Z60	X61	Y61	Z61	X62	Y62	Z62	

294	1.465	77.82629394531251	1044.366577148438	-864.8709106445315	-50.55075454711915	1016.3876953125	-916.9255371093752	-120.0662002563477	988.7209472656252	-788.9016723632815	-149.0912017822266	927.388854980469	-836.7087402343752	-406.0714721679689	753.5115966796876	-849.5430908203127	-92.96490478515626	785.651550292969	-834.0274047851565	-72.6185760498047	864.6187133789065	-996.2218017578127	-194.8107452392579	838.4895629882815	-1159.610717773438	-221.0410461425782	797.9055786132815	-1160.143432617188	-246.791488647461	826.974060058594	-1205.589111328125	-300.0389099121094	823.8878173828127	-1249.449096679688	-342.7489013671876	875.1396484375002	-1212.009155273438	-499.576141357422	672.9064941406251	-1085.233276367188	-470.1412963867189	621.6637573242189	-1129.2744140625	-459.6562805175782	649.8771362304689	-1032.908081054688	-92.7108612060547	835.9281005859377	-666.8129272460939	-230.8352203369141	845.9158935546877	-516.4503173828126	-254.3438110351563	801.6761474609377	-510.102508544922	-283.5384216308594	836.706237792969	-471.4212951660157	-341.2727966308594	809.042907714844	-435.2699279785157	-393.7184448242189	857.953063964844	-484.2027282714845	-472.0884399414064	647.8572998046876	-631.1640625000001	-460.4545898437501	590.8096313476564	-580.5198974609376	-418.8296203613282	627.8922729492189	-674.1591186523439	-394.8353576660157	553.2835083007814	-962.1152343750002	nan	nan	nan	-543.7631225585939	658.1707153320314	-856.7255859375002	-568.3670043945314	639.0103759765626	-887.8613891601565	-576.1387939453126	636.4568481445314	-834.498229980469	-367.7795715332032	451.8452453613282	-1094.579833984375	-286.5947570800782	474.8596191406251	-1111.8359375	-273.9896240234376	517.8674926757814	-1098.611206054688	-239.8004150390626	438.0001525878907	-1119.478515625	-125.4942398071289	423.9265441894532	-1128.014404296875	-106.5430221557617	378.2708435058594	-1002.639343261719	-186.9951324462891	234.1374816894532	-1101.7001953125	-273.8935852050782	251.9497833251954	-1123.8837890625	-242.7707824707032	220.4981231689454	-1117.989624023438	-276.3480224609376	146.8546600341797	-1092.290405273438	-380.8771362304688	106.3309860229492	-1095.84326171875	-329.9099426269532	96.24822998046878	-1023.000732421875	-442.6118469238282	50.94049072265626	-1054.796142578125	-221.9378051757813	55.5753860473633	-1085.270751953125	-234.5543518066407	55.90973281860353	-1130.26025390625	-291.9124755859376	36.05782699584962	-1169.349365234375	-367.2835998535157	473.2207946777345	-622.8282470703126	-303.9533386230469	490.2075805664064	-607.8658447265626	-291.5237731933594	519.4875488281251	-618.5503540039064	-241.120101928711	435.7095947265626	-590.8864135742189	-150.0149993896485	409.290985107422	-572.0467529296876	-115.0852890014649	392.7397460937501	-706.0443725585939	-188.842529296875	245.5124511718751	-609.4291381835939	-297.8428039550782	231.7835998535157	-605.5667114257814	-261.4078369140626	202.4275054931641	-610.8046875000001	-272.0199279785157	155.8828735351563	-645.5011596679689	-383.3970336914063	100.1064758300782	-642.2160034179689	-343.8444213867188	99.97727966308597	-724.5056762695314	-444.6776428222657	51.13114166259767	-703.4960327148439	-226.934066772461	53.67020797729494	-653.6712646484376	-239.4243927001954	57.79078674316408	-616.2361450195314	-292.4062805175782	35.84833526611329	-573.4678344726564	nan	nan	nan	
295	1.47	77.76393127441408	1042.987915039063	-865.344909667969	-50.79766845703126	1014.77294921875	-917.031188964844	-120.0158920288086	986.8951416015627	-789.5347900390627	-148.6983337402344	925.372985839844	-837.1840820312502	-405.7487792968751	752.1393432617189	-849.9373779296877	-92.39966583251955	783.929870605469	-834.6243286132815	-72.23464202880861	862.4251708984377	-997.0201416015627	-194.7205200195313	836.638122558594	-1160.3544921875	-221.2250366210938	795.8081665039065	-1160.542846679688	-246.9475860595704	824.5617675781252	-1205.802978515625	-300.0960693359376	821.6162109375002	-1249.678466796875	-342.9594421386719	873.4011230468752	-1212.279663085938	-499.8908081054689	671.0292968750001	-1085.458740234375	-470.9736938476564	619.8447265625001	-1129.5107421875	-460.2497863769532	648.5246582031251	-1033.318969726563	-92.2932586669922	833.8806152343752	-667.3960571289064	-230.0866851806641	843.802673339844	-516.4435424804689	-253.5042114257813	799.6234130859377	-510.6378784179689	-282.7536010742188	834.4739990234377	-471.3056945800782	-340.2131042480469	807.0767822265627	-435.637664794922	-393.4020996093751	855.980407714844	-483.9743957519532	-471.7425842285157	646.1017456054689	-631.3460693359376	-459.8015136718751	588.9657592773439	-580.9985351562501	-417.5471496582032	626.5129394531251	-674.4317626953126	nan	nan	nan	nan	nan	nan	-543.8346557617189	656.0092773437501	-856.9958496093752	-567.0523681640626	637.1273803710939	-887.5842285156252	-575.8651123046876	634.8694458007814	-834.6087646484377	-367.5715942382813	450.8600158691407	-1094.854370117188	-286.0384216308594	473.6828002929689	-1111.9619140625	-273.9595031738282	517.1516723632814	-1098.945190429688	-239.5535430908204	437.425506591797	-1119.6904296875	-125.274887084961	423.6265869140626	-1128.4462890625	-105.7959060668946	377.9099426269532	-1003.060607910156	-186.8046264648438	234.0894775390626	-1102.03759765625	-273.7539978027344	251.856430053711	-1124.054443359375	-242.7015228271485	219.7808074951172	-1118.212036132813	-276.3898010253907	146.7947998046875	-1092.391357421875	-380.9712524414063	106.3904876708985	-1095.860473632813	-329.7707824707032	96.25785064697268	-1023.160034179688	-442.5265502929689	50.96921157836915	-1054.742553710938	-221.9311218261719	55.62823486328126	-1085.254272460938	-234.5492095947266	55.93080902099611	-1130.2802734375	-291.9179382324219	36.04508972167969	-1169.343383789063	-366.9723510742188	472.225555419922	-622.9548950195314	-303.8969421386719	489.5680541992189	-607.7976074218751	-291.4212646484376	518.9611816406251	-618.3840332031251	-240.9028472900391	435.2980346679689	-590.8359375000001	-149.7951202392578	408.9673156738282	-572.0179443359376	-114.544418334961	392.3811950683595	-705.9116210937501	-188.6703186035157	245.0135192871094	-609.2613525390626	-297.7162475585938	231.7894134521485	-605.5211181640626	-261.3574523925782	202.5013122558594	-610.7618408203126	-272.0017089843751	155.7158203125	-645.4935302734376	-383.3342285156251	100.1555099487305	-642.3060302734376	-343.8740539550782	100.0286026000977	-724.6386108398439	-444.6398010253907	51.22410583496095	-703.5772094726564	-226.9446258544922	53.6479835510254	-653.6635131835939	-239.7951660156251	57.50683975219728	-616.5030517578126	-292.4440612792969	35.89593505859376	-573.4799804687501	nan	nan	nan	
296	1.475	77.97556304931642	1041.54296875	-865.9703369140627	-50.31365203857423	1012.825012207031	-917.628356933594	-119.8106231689453	985.0111083984377	-790.0502929687502	-148.2688293457032	923.593933105469	-837.5015258789065	-405.5708618164064	750.7464599609376	-850.1871337890627	-91.93415832519533	781.8164672851565	-835.0974731445315	-72.52931213378908	860.5202636718752	-997.3239746093752	-194.9587554931641	834.4440917968752	-1160.568725585938	-221.0146026611329	793.6763916015627	-1161.075805664063	-247.2259674072266	822.9221801757815	-1206.355712890625	-300.4308166503907	820.0286865234377	-1249.878540039063	-343.1185607910157	871.4919433593752	-1212.412963867188	-500.2025756835939	669.2660522460939	-1085.759399414063	-472.2977905273439	617.8932495117189	-1129.91943359375	-460.2562561035157	647.1938476562501	-1033.62548828125	-91.85639953613283	831.9795532226565	-667.8535766601564	-229.0635681152344	841.6848144531252	-517.1147460937501	-252.4945831298829	797.6429443359377	-510.8948059082032	-282.0224609375001	832.3111572265627	-471.727752685547	-339.2639770507813	805.0050048828127	-435.4893493652345	-392.3957824707032	853.9780273437502	-484.1376342773439	-471.2665100097657	644.4237670898439	-631.3068237304689	-459.2954711914064	587.0128173828126	-581.2071533203126	-417.6016845703126	624.9489135742189	-674.5367431640626	nan	nan	nan	nan	nan	nan	-543.4570312500001	654.6311035156251	-857.0500488281252	-568.3551025390626	635.8450927734376	-888.2670898437502	-575.8984985351564	633.3087768554689	-834.6834716796877	-367.3677978515626	449.8991088867189	-1095.199462890625	-286.2593078613282	473.2325134277345	-1112.454223632813	-273.8731384277344	516.3278198242189	-1099.208740234375	-239.3628387451172	436.7041015625001	-1120.000366210938	-125.0643539428711	423.331268310547	-1128.90673828125	-105.6084060668946	377.4848327636719	-1003.602294921875	-186.861312866211	234.2621154785157	-1102.319702148438	-273.5957641601563	251.7462158203126	-1124.175659179688	-242.4527435302735	220.0788726806641	-1118.342407226563	-276.3785705566407	146.7181396484375	-1092.461791992188	-380.8475952148438	106.3576812744141	-1095.85693359375	-329.6905517578126	96.31714630126956	-1023.123718261719	-442.5538330078126	51.08754348754884	-1054.729370117188	-221.9355010986329	55.59270477294923	-1085.295043945313	-234.5399780273438	55.84153747558595	-1130.30126953125	-291.9041748046876	36.02626037597657	-1169.341064453125	-366.6662902832032	471.3289184570314	-623.1087036132814	-303.7432861328126	488.6611633300782	-607.7545776367189	-291.4317932128907	518.6675415039064	-618.3377685546876	-240.6712799072266	434.6967773437501	-590.7180786132814	-149.5585174560547	408.5222778320314	-571.9077148437501	-114.2202758789063	391.8719482421876	-705.8594970703126	-188.6245269775391	245.0027770996094	-609.1440429687501	-297.6870422363282	231.7576141357422	-605.5223388671876	-261.3166503906251	202.3645935058594	-610.7489624023439	-271.9624328613282	155.6729888916016	-645.3790283203126	-383.3919067382813	100.2286376953125	-642.4508056640626	-343.8333740234376	100.0411987304688	-724.6353759765626	-444.4946594238282	51.19228363037111	-703.7024536132814	-226.9019622802735	53.66201400756837	-653.6395263671876	-239.379379272461	57.76743316650392	-616.1995849609376	-292.4211120605469	35.96088027954102	-573.4905395507814	nan	nan	nan	
297	1.48	77.88201141357423	1040.091918945313	-866.4429321289065	-50.548885345459	1011.257263183594	-918.371276855469	-119.6388092041016	983.3804321289065	-790.442565917969	-147.9768524169922	921.9479980468752	-838.1243896484377	-405.1886291503907	749.5270385742189	-850.5523071289065	-91.7531204223633	780.2114257812502	-835.4378662109377	-72.1492156982422	858.429870605469	-998.0635986328127	-195.1259002685547	832.7904052734377	-1161.268676757813	-221.7704772949219	792.0720825195315	-1161.25244140625	-247.438217163086	820.912780761719	-1206.505737304688	-300.7359619140626	818.0625000000002	-1250.224609375	-343.3783874511719	869.946960449219	-1212.63720703125	-500.5344238281251	667.9149780273439	-1086.06005859375	-472.7015380859376	616.1007690429689	-1130.124389648438	-460.6822509765626	645.8051757812501	-1033.885986328125	-91.37751770019533	829.877136230469	-668.3563232421876	-228.0589904785157	839.6387939453127	-517.3817749023439	-252.0292358398438	795.0356445312502	-511.1532287597657	-280.7478942871094	830.2947387695315	-472.2131652832032	-338.2559509277344	802.752380371094	-435.9078063964845	-391.3049621582032	852.365661621094	-483.972869873047	-470.8179016113282	642.7837524414064	-631.4651489257814	-458.7928466796876	585.3229980468751	-581.2675781250001	-417.0086975097657	623.4432983398439	-674.6670532226564	nan	nan	nan	nan	nan	nan	-543.5853881835939	653.0003662109376	-857.3308105468752	-567.0214233398439	634.1700439453126	-887.8129882812502	-575.7744750976564	631.8328857421876	-834.9004516601565	-367.1194763183594	448.910614013672	-1095.386840820313	-286.0905761718751	472.4293212890626	-1112.927124023438	-273.8971862792969	515.4632568359376	-1099.518676757813	-239.1932830810547	436.0243530273439	-1120.511962890625	-124.8743667602539	423.0492248535157	-1129.408935546875	-105.756591796875	376.9050598144532	-1004.352478027344	-186.8150482177735	234.1087799072266	-1102.505126953125	-273.4087219238282	251.5927734375001	-1124.34326171875	-242.5603485107422	219.4464569091797	-1118.638305664063	-276.4232177734376	146.6552429199219	-1092.65380859375	-380.5621643066407	106.2186584472657	-1095.843994140625	-329.5858764648438	96.37799835205081	-1023.11376953125	-442.4627075195314	51.08024215698244	-1054.697265625	-221.9158935546876	55.55935287475587	-1085.304809570313	-234.5323486328126	55.8342971801758	-1130.314208984375	-291.9399414062501	35.99345016479493	-1169.348754882813	-366.5610046386719	470.5875854492189	-623.1964721679689	-303.5104980468751	488.0335998535157	-607.9346313476564	-291.0143432617188	517.9188842773439	-618.5166015625001	-240.2594451904297	433.9797363281251	-590.6392211914064	-149.383041381836	408.3688354492189	-571.7626342773439	-113.7764892578125	391.5282287597657	-705.8104858398439	-188.552230834961	244.9543914794922	-609.0537719726564	-297.6000671386719	231.7823028564454	-605.5381469726564	-261.2843627929688	202.1228027343751	-610.7956542968751	-271.8630065917969	155.5561065673828	-645.3743286132814	-383.4034729003907	100.2686920166016	-642.5501708984376	-343.6087951660157	100.0555419921875	-724.5785522460939	-444.4418334960939	51.2423553466797	-703.7946777343751	-226.9185791015626	53.69517898559572	-653.6494750976564	-239.7516632080079	57.52616119384767	-616.4637451171876	-292.4532775878907	35.88652801513673	-573.5263061523439	nan	nan	nan	
